<svg xmlns="http://www.w3.org/2000/svg" xmlns:svgjs="http://svgjs.com/svgjs" xmlns:xlink="http://www.w3.org/1999/xlink" width="288" height="288"><svg xmlns="http://www.w3.org/2000/svg" width="288" height="288" enable-background="new 0 0 1500 1500" viewBox="0 0 1500 1500"><path fill="#0d63a5" d="M1123.4,176.5c-427.7-148-789.5-92.1-828,137.3C-15,905.2,49,946,581.2,1320.1
		c47.8,240.9,518.7-78.8,660.6-325.6C1420.5,885.5,1500.8,282,1123.4,176.5z" class="color80c1ea svgShape"/><path fill="#083358" d="M1063.4,1203.5c-31.1-57.7-57.1-123.2-105.2-138.5c-99.4-31.5-79.1,75-184.1,142.5
		c-105,67.5-157.5-120-183.9-195c-26.4-75-111.6-43.5-193.7-84.2C314.4,887.6,406,752.5,262.6,702c-48.5-17.1-95.7-15.1-136.9-4.9
		c-69.4,256.2,70.7,352.5,455.5,622.9C615.7,1494.1,870.8,1375.7,1063.4,1203.5z" class="color9fdcf8 svgShape"/><path fill="#b6dfff" d="M1239,799.5c-76,63.5-7.3,178.8-169.6,161.2s-270.6,51.9-310.5,150.1
		c-39.9,98.2-201.3,33.8-303.6,0c-33.2-11-80.3,2.7-123.9,28.8c67.3,52.4,150.4,110.6,249.8,180.5
		c47.8,240.9,518.7-78.8,660.6-325.6c53.8-32.8,98.6-110.3,124.8-205.5C1325.9,774.6,1276.4,768.3,1239,799.5z" class="colorb6ecff svgShape"/><path fill="#f0d96c" d="M1061.2,894.9c0,0-12.2,44.3-41.4,54.6c-29.2,10.3-23.2,58.4-4.3,93.6
				c18.9,35.2-6.9,45.5-39.5,6c-32.6-39.5-36.1-67.9-95.3-74.7c-59.3-6.9-73.9-66-73.9-66C885.1,843,970.1,840.9,1061.2,894.9z" class="colorf06c9d svgShape"/><path fill="#f0d96c" d="M533,761.5c0,0-42,25.3-100,0c-58-25.3-35.3-110.7-35.3-110.7s-28.7-82,12.7-128
				c41.3-46,75.3-47.3,75.3-47.3s26.7-60.7,97.3-60c0,0,120-59.3,258,0s174.7,128,174.7,128s58.7,27.3,86,99.3c27.3,72,0,138,0,138
				s26,50.7-12,94c-38,43.3-123.3,32.7-157.3-6c0,0-16.7,32.7-89.3,18.7c0,0-15,25-69.5,23s-68-28-68-28S677,922,605.5,905
				S514.5,796,533,761.5z" class="colorf06c9d svgShape"/><path fill="#001f3f" d="M779.5,919.1c-2.1,0-4.2,0-6.4-0.1c-38.7-1.4-58.8-14.6-68.2-23.7
				c-13.3,11.8-45.1,31.4-101.5,18c-32.1-7.6-58.1-30.3-73.2-63.9c-10.9-24.3-14.7-51.7-11-73.1c-18.8,5.7-50.9,9.9-89.7-7
				c-26.8-11.7-42.2-36.6-44.5-72.1c-1.4-20.9,2.2-39.4,3.7-46c-4.6-14.7-25.4-88.9,15.2-134c34.3-38.1,64.3-47.3,76.1-49.5
				c3.3-6,10.3-17.3,21.8-28.5c15-14.6,40.9-31.9,79.2-32.2c7.4-3.4,35.9-15.6,77.8-22.1c44.2-6.9,112.3-8.6,185.4,22.8
				C970.6,462,1013.7,523.9,1021.7,537c11.9,6.3,62.5,36,87.9,102.8c24.9,65.6,6.7,125.7,1.3,140.7c2.3,5.4,6.2,16.3,7.5,30.2
				c2.5,26.1-5.2,50.1-22.3,69.7c-17.5,19.9-45,30.9-77.4,31c0,0-0.1,0-0.1,0c-32.6,0-65.1-11.6-85.8-30c-10.7,10-35.5,24-86.5,15.4
				C838.9,904.6,819.6,919.1,779.5,919.1z M713,878.5c0.9,1.6,13.7,21.8,60.8,23.5c47,1.7,60.9-17.4,61.9-18.9
				c1.8-3.2,5.3-4.6,8.9-3.9c34.1,6.6,54.3,2.1,65.2-2.7c10.7-4.8,14.5-10.8,15-11.5c1.2-2.6,3.6-4.2,6.4-4.6c2.8-0.4,5.6,0.8,7.5,3
				c16.7,18.9,48,31.2,79.9,31.2c0,0,0.1,0,0.1,0c27.4,0,50.4-9,64.6-25.2c33.8-38.5,11.1-84.1,10.8-84.5c-1.1-2.2-1.2-4.8-0.3-7.1
				c0.3-0.6,25.6-63.9-0.1-131.7c-25.7-67.7-81.1-94.4-81.7-94.7c-1.7-0.8-3-2.1-3.9-3.7c-0.1-0.1-9.3-16.8-34.7-40.3
				c-23.6-21.8-66.2-54-135.8-83.9c-69.4-29.9-134.1-28.3-176.1-21.7c-45.4,7.1-74.5,21.3-74.8,21.5c-1.2,0.6-2.5,0.9-3.8,0.9
				c-26.8-0.3-49.9,8.8-68.7,26.9c-14.3,13.8-20.7,27.9-20.8,28c-1.3,3-4.2,4.9-7.4,5.1c-0.2,0-31.4,2.3-69.3,44.5
				c-37.4,41.7-11.2,118.7-11,119.5c0.6,1.6,0.6,3.3,0.2,5c-0.2,0.8-20.1,78.6,30.5,100.7c53.4,23.3,91.8,0.7,92.2,0.5
				c3.3-2,7.5-1.5,10.2,1.1c2.8,2.6,3.4,6.8,1.6,10.2c-7.7,14.4-8.5,46.2,5.3,76.9c7.5,16.6,25.4,45.7,61.7,54.3
				c12.1,2.9,22.8,4,32.2,4c41,0,58.1-22.1,59-23.3c1.8-2.4,4.6-3.9,7.6-3.6C709.2,874.2,711.7,875.9,713,878.5z" class="color580731 svgShape"/><path fill="#001f3f" d="M1012.2,1083.1c-12.1,0-27.5-10.1-42.8-28.5c-7.8-9.4-14-18.3-19.5-26.1
				c-17.8-25.4-28.6-40.8-70.3-45.6c-26.7-3.1-49.2-16.6-65.1-39.1c-11.8-16.8-15.9-32.6-16-33.3l16.5-4.1c0,0.1,3.6,13.9,13.7,28
				c13.2,18.4,31,29,52.9,31.6c49.3,5.7,63.9,26.5,82.3,52.7c5.5,7.9,11.3,16.1,18.6,25c16.2,19.6,28,23.1,30.5,22.2
				c0.6-1.1,1.3-6.9-5-18.8c-12.2-22.7-23-58.3-13.1-83.6c4.2-10.8,11.8-18.4,22.1-22c24.6-8.7,35.9-48.5,36-48.9l16.4,4.5
				c-0.5,2-13.7,48.7-46.7,60.4c-5.6,2-9.5,5.9-11.9,12.1c-6.2,15.9-1.1,44.5,12.3,69.5c14.9,27.7,3.4,38.3-0.4,40.9
				C1019.5,1082.1,1016,1083.1,1012.2,1083.1z" class="color580731 svgShape"/><path fill="#001f3f" d="M998.7 960.7c-29.9 0-55.4-15.7-56.9-16.6-4-2.5-5.2-7.7-2.7-11.7 2.5-4 7.7-5.2 11.7-2.7.5.3 40.4 24.7 73.3 8.3 4.2-2.1 9.3-.4 11.4 3.8 2.1 4.2.4 9.3-3.8 11.4C1020.7 958.6 1009.4 960.7 998.7 960.7zM1101.7 789.3c-3.1 0-6.1-1.7-7.6-4.7-.3-.5-16.2-31.1-50-37.5-4.6-.9-7.6-5.3-6.8-9.9.9-4.6 5.3-7.6 9.9-6.8 42.3 8 61.2 45 62 46.5 2.1 4.2.4 9.3-3.8 11.4C1104.2 789.1 1103 789.3 1101.7 789.3z" class="color580731 svgShape"/><polyline fill="#ffd717" points="701.2 759 637.1 933.8 738.5 933.8 665.9 1110.8 884.5 862.9 766.2 862.9 807.7 757" class="colorf7b617 svgShape"/><path fill="#001f3f" d="M760.1 774.7c-7.5 0-12.9-.6-14.5-.8-24.4-1.1-42.7-13.4-60.3-25.2-20.8-13.9-40.4-27.1-71.4-26.1-55.4 1.8-72.4 40.5-73.1 42.1-1.8 4.3-6.8 6.4-11.1 4.5-4.3-1.8-6.4-6.7-4.6-11.1.8-2.1 21.5-50.4 88.3-52.6 36.5-1.2 60.3 14.8 81.4 29 17.2 11.6 32.1 21.5 51.9 22.3.2 0 .5 0 .7.1.5.1 48.4 5.8 64.6-17.9 2.6-3.9 7.9-4.9 11.8-2.2 3.9 2.6 4.9 7.9 2.2 11.8C810.8 771.1 779 774.7 760.1 774.7zM941.5 628.8c-29.2 0-50.3-11-68-20.2-11.3-5.9-21.1-11-31.3-12.7-4.6-.8-7.7-5.2-6.9-9.8.8-4.6 5.2-7.7 9.8-6.9 12.8 2.2 24.2 8.1 36.2 14.4 22.5 11.7 45.8 23.8 83.9 15.7 16.2-3.5 28-10.8 35.1-21.9 12-18.7 7.1-41.8 7-42-1-4.6 1.9-9.1 6.5-10.1 4.6-1 9.1 1.9 10.1 6.5.3 1.2 6.4 30.3-9.3 54.9-9.6 15-25 24.8-45.8 29.3C959 627.9 949.9 628.8 941.5 628.8zM397.7 659.3c-.3 0-.5 0-.8 0-4.7-.4-8.1-4.5-7.7-9.2.1-1.4 1.5-14.1 11.4-27.7 9.1-12.4 27.4-28 62.9-31.4 4.7-.4 8.8 3 9.3 7.7.4 4.7-3 8.8-7.7 9.3-55 5.3-59 43.2-59 43.6C405.7 656 402 659.3 397.7 659.3z" class="color580731 svgShape"/><path fill="#001f3f" d="M613 854c-1.9 0-3.8-.6-5.4-1.9-12.3-10-18.7-24-17.2-37.6 1.8-16.3 14.2-30.2 36.8-41.3 38.2-18.8 31.3-42.6 31-43.6l0 .1 16.1-5.5c.4 1.1 3.4 10.7-.3 23.6-3.3 11.3-12.8 27.6-39.3 40.7-16.8 8.3-26.3 18-27.4 28-1 9.1 5 17.6 11 22.5 3.6 3 4.2 8.3 1.2 12C617.9 852.9 615.5 854 613 854zM1008 740c-.5 0-.9 0-1.4-.1l-28-4.6c-4.6-.8-7.8-5.1-7-9.8.8-4.6 5.1-7.8 9.8-7l28 4.6c4.6.8 7.8 5.1 7 9.8C1015.7 737 1012.1 740 1008 740zM621.7 568c-.2 0-.4 0-.6 0-21.5-1.6-30.2-18.1-40.1-37.2-5.8-11-12.3-23.5-22.5-35.9-23.7-28.8-69.2-11.7-69.7-11.5-4.4 1.7-9.3-.5-11-4.9-1.7-4.4.5-9.3 4.8-11 2.3-.9 57.4-21.8 89 16.5 11.3 13.8 18.6 27.7 24.4 38.9 9.6 18.4 14.7 27.2 26.3 28.1 4.7.3 8.2 4.4 7.9 9.1C629.8 564.6 626.1 568 621.7 568z" class="color580731 svgShape"/><path fill="#001f3f" d="M541.5 547.8c-3 0-6.1-.2-9.5-.6-4.7-.5-8-4.7-7.5-9.4.5-4.7 4.7-8 9.4-7.5 33.6 3.8 39.6-17.7 39.7-18 1.2-4.5 5.8-7.3 10.4-6.1 4.5 1.2 7.3 5.8 6.1 10.4C587.1 528.1 573.2 547.8 541.5 547.8zM925.7 673.3c-2.4 0-4.7-1-6.4-2.9-22.2-25.4-14.1-49-6.8-57.9l13.1 10.8.1-.1c-1.2 1.6-11.3 15.7 6.4 36 3.1 3.5 2.7 8.9-.8 12C929.7 672.6 927.7 673.3 925.7 673.3zM643.6 457.2c-19.7 0-35-7.2-45.2-14.4-14.7-10.2-22.3-22.3-22.6-22.8-2.5-4-1.3-9.2 2.7-11.7 4-2.5 9.2-1.3 11.7 2.7 1 1.6 24.9 38.5 70.7 26.9 4.5-1.2 9.2 1.6 10.3 6.2 1.2 4.6-1.6 9.2-6.2 10.3C657.4 456.4 650.3 457.2 643.6 457.2zM525.7 688c-3.2 0-6.3-1.8-7.7-4.9-.4-.9-10.4-22.9.7-40.7 8-12.8 23.9-19.5 47.4-20 20.7-.4 40.5 2.3 59.7 4.9 38.6 5.3 69.2 9.5 87-14.4 2.8-3.8 8.1-4.5 11.9-1.7 3.8 2.8 4.5 8.1 1.7 11.9-23.9 32-62.3 26.7-103 21.1-18.5-2.5-37.7-5.2-57-4.8-12 .3-27.5 2.5-33.4 12-6.2 10 .2 24.5.2 24.6 2 4.3.1 9.3-4.1 11.3C528.1 687.8 526.9 688 525.7 688z" class="color580731 svgShape"/><path fill="#001f3f" d="M750 705.3c-.4 0-.7 0-1.1-.1-4.7-.6-7.9-4.9-7.3-9.5 4.7-36.3-48.4-51.3-48.9-51.5-4.5-1.2-7.2-5.9-5.9-10.5 1.2-4.5 5.9-7.2 10.5-5.9.7.2 16.7 4.7 32.1 15 21.8 14.6 31.9 33.6 29.1 55C757.9 702.2 754.2 705.3 750 705.3zM760.3 552c-4.5 0-8.3-3.6-8.5-8.2-.1-1.5-1.2-36.4 20.1-57.1 11.1-10.8 26.1-15.7 44.3-14.4 51.7 3.6 70.5-34.2 70.6-34.5 2-4.2 7.1-6 11.3-4 4.2 2 6 7.1 4 11.3-1 2-24.1 48.5-87.1 44.1-13.4-.9-23.6 2.2-31.3 9.6-15.8 15.3-15 44-15 44.3.2 4.7-3.5 8.6-8.2 8.8C760.5 552 760.4 552 760.3 552z" class="color580731 svgShape"/><path fill="#001f3f" d="M785.7 495.4c-1.2 0-2.5-.3-3.7-.9l0 0c-.6-.3-55.3-26.3-81.2-1.5-3.4 3.2-8.8 3.1-12-.3-3.2-3.4-3.1-8.8.3-12 34.4-33 97.7-2.8 100.4-1.5 4.2 2.1 6 7.1 3.9 11.4C791.9 493.6 788.8 495.4 785.7 495.4zM932.3 877.3c-3.5 0-6.7-2.1-8-5.5-.2-.6-5.7-15.5-6.1-34-.6-25.6 8.6-45.8 26.5-58.5 3.8-2.7 9.1-1.8 11.8 2.1 2.7 3.8 1.8 9.1-2.1 11.8-32.1 22.6-14.4 72.2-14.2 72.7 1.6 4.4-.6 9.3-5 10.9C934.3 877.2 933.3 877.3 932.3 877.3zM900 732c-.1 0-.2 0-.3 0-28.9-1.2-46.1-14.7-55.4-25.8-10.1-12.1-13.3-24.1-13.4-24.6-1.2-4.5 1.5-9.2 6.1-10.4 4.5-1.2 9.2 1.5 10.4 6.1.4 1.6 10.3 36 53 37.7 4.7.2 8.3 4.1 8.2 8.8C908.3 728.4 904.5 732 900 732zM935.1 560.9c-18.2 0-33-9.8-33.8-10.3-3.9-2.6-4.9-7.9-2.3-11.8 2.6-3.9 7.9-4.9 11.8-2.3.3.2 19 12.3 35.6 5.2 4.3-1.8 9.3.2 11.1 4.5 1.8 4.3-.2 9.3-4.5 11.1C946.9 559.9 940.8 560.9 935.1 560.9z" class="color580731 svgShape"/><path fill="#fff" d="M455.6 508.6c-16 10.3-27.8 25-34.6 42.7-1.6 4.3 1.8 9.3 5.9 10.4 4.8 1.3 8.7-1.6 10.4-5.9 5.2-13.5 14.8-24.9 26.9-32.7C473.3 517.3 464.8 502.7 455.6 508.6zM422 569.6c-10.9 0-10.9 16.9 0 16.9C432.9 586.4 432.9 569.6 422 569.6zM449.1 716.8c1.3.5-1-.5-1.1-.5-.5-.3-1-.6-1.5-.9 0 0-1.2-.9-1.3-.9-.4-.4-.9-.8-1.3-1.2-.4-.4-.8-.9-1.2-1.3-.1-.2-.5-.7-.7-.9-.4-.6-.8-1.2-1.1-1.8-.1-.3-1.1-2.4-.5-1.1-1.6-4.2-5.7-7.2-10.4-5.9-4.1 1.1-7.5 6.1-5.9 10.4 3.8 9.7 10.7 16.7 20.5 20.4 4.3 1.6 9.3-1.8 10.4-5.9C456.3 722.5 453.3 718.5 449.1 716.8zM757.2 415.6c-5-1.7-9.9-3.5-14.9-5.2-4.3-1.5-9.2 1.7-10.4 5.9-1.3 4.6 1.6 8.9 5.9 10.4 5 1.7 9.9 3.5 14.9 5.2 4.3 1.5 9.2-1.7 10.4-5.9C764.3 421.3 761.5 417.1 757.2 415.6zM683.1 604.3c-1.3-4.9-5.8-6.5-10.4-5.9-6.5.9-13.2 1-19.8.6-10.8-.6-10.8 16.2 0 16.9 8.2.5 16.2-.1 24.3-1.2C681.8 614.1 684.2 608.3 683.1 604.3zM574.8 744.3c-13.6 4.3-23.1 16.8-23.1 31.2 0 10.9 16.8 10.9 16.9 0 0-6.7 4.3-12.8 10.7-14.9C589.5 757.4 585.1 741.1 574.8 744.3zM559 791.1c-10.9 0-10.9 16.9 0 16.9C569.9 807.9 569.9 791.1 559 791.1zM1077.9 811c-5.4-18.2-16.6-33.4-31.9-44.5-3.7-2.7-9.4-.6-11.5 3-2.5 4.2-.7 8.9 3 11.5 11.7 8.4 20.1 20.6 24.2 34.4C1064.8 825.9 1081 821.5 1077.9 811zM1068 825.1c-10.9 0-10.9 16.9 0 16.9C1078.9 841.9 1078.9 825.1 1068 825.1zM1070.1 620.3c-5.9-8.9-11.4-17.9-16.6-27.2-5.3-9.5-19.9-1-14.6 8.5 5.2 9.3 10.8 18.4 16.6 27.2C1061.5 637.9 1076.2 629.4 1070.1 620.3zM914.1 486.5c-6.5-3.7-12.8-7.8-18.8-12.3-3.7-2.7-9.4-.6-11.5 3-2.5 4.3-.7 8.8 3 11.5 6.1 4.4 12.3 8.5 18.8 12.3C915 506.4 923.6 491.9 914.1 486.5zM848 810c-3.3-3-8.7-3.5-11.9 0-3.4 3.6-6.7 7.3-10.1 10.9-3 3.2-3.4 8.8 0 11.9 3.3 3 8.7 3.5 11.9 0 3.4-3.6 6.7-7.3 10.1-10.9C851 818.7 851.4 813.2 848 810zM873.1 931.5l-7-7c-3.1-3.1-8.8-3.4-11.9 0-3.1 3.4-3.3 8.6 0 11.9l7 7c3.1 3.1 8.8 3.4 11.9 0C876.1 940 876.4 934.8 873.1 931.5z" class="colorfff svgShape"/><path fill="#001f3f" d="M665.9,1119.3c-1.5,0-3.1-0.4-4.5-1.3c-3.5-2.2-5-6.6-3.4-10.4l67.7-165.3h-88.6
				c-2.8,0-5.4-1.4-7-3.6c-1.6-2.3-2-5.2-1-7.8l64-174.8c1.6-4.4,6.5-6.7,10.9-5.1c4.4,1.6,6.7,6.5,5.1,10.9l-59.8,163.4h89.1
				c2.8,0,5.5,1.4,7.1,3.8c1.6,2.4,1.9,5.3,0.8,8l-53.4,130.3l172.7-195.9h-99.5c-2.8,0-5.4-1.4-7-3.7c-1.6-2.3-1.9-5.3-0.9-7.9
				l41.5-105.8c1.7-4.4,6.6-6.5,11-4.8c4.4,1.7,6.5,6.6,4.8,11l-36.9,94.2h105.8c3.3,0,6.4,2,7.7,5s0.8,6.6-1.4,9.1l-218.6,247.9
				C670.7,1118.3,668.3,1119.3,665.9,1119.3z" class="color580731 svgShape"/><path fill="#fff" d="M895 751.1c-8.9-.6-17.1-4.5-23.5-10.7-7.8-7.6-19.7 4.4-11.9 11.9 9.7 9.4 22 14.7 35.5 15.7C905.8 768.7 905.8 751.9 895 751.1zM694.1 834.8c-.9 10.6-8 20-10.9 30.1-3 10.5 13.3 14.9 16.3 4.5 3.4-11.9 10.4-22 11.5-34.6C711.9 824 695.1 824.1 694.1 834.8zM684.7 881.7c-10.9 0-10.9 16.9 0 16.9C695.5 898.6 695.5 881.7 684.7 881.7zM804 895.1c-10.9 0-10.9 16.9 0 16.9C814.9 911.9 814.9 895.1 804 895.1z" class="colorfff svgShape"/><path fill="#083358" d="M148.8 421.1h264.7c0 0 9.2-38.9-58.8-43.9-67.9-5-54.4-105.5-129.4-98C150.3 286.7 214.8 399.5 148.8 421.1zM1213.6 673.4h253.5c0 0-6-66.5-66-74.8-60-8.3-43.5-81.5-100.5-74.9-57 6.6-20.2 86.3-56.9 105.3C1207 648 1213.6 673.4 1213.6 673.4z" class="color9fdcf8 svgShape"/><circle cx="1146.6" cy="389.1" r="70.5" fill="#fff" class="colorfff svgShape"/></svg></svg>